<svg xmlns="http://www.w3.org/2000/svg" fill="none" viewBox="0 0 64 64"><path fill="url(#a)" fill-rule="evenodd" d="M18 6C11.3726 6 6 11.3726 6 18V46C6 46.3848 6.01811 46.7653 6.05352 47.1408L10.5889 39.8841C15.6167 31.8397 27.0207 31.0191 33.1483 38.2609L38.3167 44.3689C42.888 37.4644 53.4168 37.3751 58 44.5415V32C58 30.8954 58.8954 30 60 30C61.1046 30 62 30.8954 62 32V46C62 54.8366 54.8366 62 46 62H18C9.16344 62 2 54.8366 2 46V18C2 9.16344 9.16344 2 18 2H32C33.1046 2 34 2.89543 34 4C34 5.10457 33.1046 6 32 6H18ZM56.8462 51.1407L55.1216 47.5772C52.2428 41.6289 43.814 41.7822 41.0687 47.6213L49.4299 57.5027C52.7087 56.5265 55.4001 54.1865 56.8462 51.1407ZM18 58C13.6019 58 9.75633 55.6339 7.66693 52.1052C7.67678 52.0903 7.68647 52.0752 7.69599 52.06L13.9809 42.0041C17.5722 36.2581 25.7179 35.672 30.0948 40.8446L44.6109 58H18Z" clip-rule="evenodd"/><path fill="url(#b)" d="M59.3379 15.4866C58.5169 16.2255 57.2523 16.1589 56.5134 15.3379L51 9.21191V26C51 27.1046 50.1046 28 49 28C47.8954 28 47 27.1046 47 26V9.21189L41.4866 15.3379C40.7477 16.1589 39.4831 16.2255 38.6621 15.4866C37.841 14.7477 37.7745 13.4831 38.5134 12.6621L44.5402 5.96558C46.9237 3.3173 51.0763 3.3173 53.4598 5.96559L59.4866 12.6621C60.2255 13.4831 60.1589 14.7477 59.3379 15.4866Z"/><defs><linearGradient id="a" x1="9.5" x2="48" y1="2" y2="52" gradientUnits="userSpaceOnUse"><stop stop-color="#FA1228"/><stop offset=".901" stop-color="#5A00D1"/></linearGradient><linearGradient id="b" x1="9.5" x2="48" y1="2" y2="52" gradientUnits="userSpaceOnUse"><stop stop-color="#FA1228"/><stop offset=".901" stop-color="#5A00D1"/></linearGradient></defs></svg>